<?xml version="1.0" encoding="utf-8"?>
<!-- Generator: Adobe Illustrator 18.0.0, SVG Export Plug-In . SVG Version: 6.00 Build 0)  -->
<!DOCTYPE svg PUBLIC "-//W3C//DTD SVG 1.1//EN" "http://www.w3.org/Graphics/SVG/1.1/DTD/svg11.dtd">
<svg version="1.1" id="Livello_1" xmlns="http://www.w3.org/2000/svg" xmlns:xlink="http://www.w3.org/1999/xlink" x="0px" y="0px"
	 viewBox="0 0 56.7 30.6" enable-background="new 0 0 56.7 30.6" xml:space="preserve">
<path fill="#FFFFFF" d="M33.2,25.7c0.2,0,0.3,0.1,0.5,0.1v4.8c-0.2,0-0.4,0-0.5,0c-1.1,0-2.1-0.2-3-0.5c-0.9-0.4-1.7-0.9-2.3-1.5
	c-0.6-0.7-1.1-1.4-1.5-2.4c-0.3-0.9-0.5-2-0.5-3.1v-2.3v-4.7V0.5h5.5v15.5v4.7V23c0,0.6,0.1,1,0.3,1.4c0.2,0.4,0.4,0.6,0.7,0.8
	C32.6,25.4,32.9,25.6,33.2,25.7z M18.8,0c-0.9,0-1.7,0.3-2.4,1c-0.7,0.7-1,1.5-1,2.4c0,0.9,0.3,1.7,1,2.4c0.7,0.6,1.5,1,2.4,1
	c0.9,0,1.7-0.3,2.4-1c0.7-0.6,1-1.4,1-2.4c0-1-0.3-1.8-1-2.4C20.6,0.3,19.8,0,18.8,0z M8.9,7.9c0-0.6,0.1-1,0.3-1.4
	c0.2-0.4,0.4-0.6,0.7-0.8c0.3-0.2,0.6-0.3,0.9-0.4c0.2,0,0.3-0.1,0.5-0.1v0h0V0.3h0v0c-0.2,0-0.3,0-0.5,0c0,0,0,0,0,0c0,0,0,0,0,0
	c-1.1,0-2.1,0.2-3,0.5C6.7,1.1,6,1.6,5.3,2.3C4.7,3,4.2,3.8,3.8,4.7c-0.3,0.9-0.5,2-0.5,3.1v2.3H0v4.7h3.3v15.5h5.5v0h0V14.8h7.3
	v15.5h5.4V10.1H8.9V7.9z M56.7,19.9c0,6.2-4.5,10.7-10.5,10.7c-6,0-10.5-4.5-10.5-10.7c0-6.2,4.5-10.7,10.5-10.7
	C52.2,9.3,56.7,13.7,56.7,19.9z M51.3,19.9c0-3.8-2.5-5.7-5.1-5.7c-2.7,0-5.1,1.9-5.1,5.7c0,3.8,2.5,5.7,5.1,5.7
	C48.8,25.7,51.3,23.7,51.3,19.9z"/>
</svg>
